<mxfile host="Electron" modified="2023-11-16T18:08:11.940Z" agent="Mozilla/5.0 (Windows NT 10.0; Win64; x64) AppleWebKit/537.36 (KHTML, like Gecko) draw.io/22.0.3 Chrome/114.0.5735.289 Electron/25.8.4 Safari/537.36" etag="RD4GhnPYHCFODjFAMo1M" version="22.0.3" type="device">
  <diagram name="第 1 页" id="j1uCAWgU_qZbSqcO1avt">
    <mxGraphModel dx="1432" dy="815" grid="1" gridSize="10" guides="1" tooltips="1" connect="1" arrows="1" fold="1" page="1" pageScale="1" pageWidth="827" pageHeight="1169" math="0" shadow="0">
      <root>
        <mxCell id="0" />
        <mxCell id="1" parent="0" />
        <mxCell id="qZzi_SCzW3qL0KnUVAnv-3" value="DOB" style="whiteSpace=wrap;html=1;align=center;" parent="1" vertex="1">
          <mxGeometry x="70" y="90" width="100" height="40" as="geometry" />
        </mxCell>
        <mxCell id="qZzi_SCzW3qL0KnUVAnv-4" value="Entity" style="whiteSpace=wrap;html=1;align=center;" parent="1" vertex="1">
          <mxGeometry x="170" y="90" width="100" height="40" as="geometry" />
        </mxCell>
        <mxCell id="qZzi_SCzW3qL0KnUVAnv-6" value="SSN" style="whiteSpace=wrap;html=1;align=center;" parent="1" vertex="1">
          <mxGeometry x="270" y="90" width="100" height="40" as="geometry" />
        </mxCell>
        <mxCell id="qZzi_SCzW3qL0KnUVAnv-7" value="CusImage" style="whiteSpace=wrap;html=1;align=center;" parent="1" vertex="1">
          <mxGeometry x="370" y="90" width="100" height="40" as="geometry" />
        </mxCell>
        <mxCell id="qZzi_SCzW3qL0KnUVAnv-16" style="edgeStyle=orthogonalEdgeStyle;rounded=0;orthogonalLoop=1;jettySize=auto;html=1;exitX=0.5;exitY=0;exitDx=0;exitDy=0;entryX=0.5;entryY=0;entryDx=0;entryDy=0;" parent="1" source="qZzi_SCzW3qL0KnUVAnv-8" target="qZzi_SCzW3qL0KnUVAnv-6" edge="1">
          <mxGeometry relative="1" as="geometry" />
        </mxCell>
        <mxCell id="qZzi_SCzW3qL0KnUVAnv-8" value="RSSN" style="whiteSpace=wrap;html=1;align=center;" parent="1" vertex="1">
          <mxGeometry x="470" y="90" width="100" height="40" as="geometry" />
        </mxCell>
        <mxCell id="qZzi_SCzW3qL0KnUVAnv-9" value="AccountIDNumber" style="whiteSpace=wrap;html=1;align=center;" parent="1" vertex="1">
          <mxGeometry x="70" y="360" width="100" height="40" as="geometry" />
        </mxCell>
        <mxCell id="qZzi_SCzW3qL0KnUVAnv-11" value="LocationCity" style="whiteSpace=wrap;html=1;align=center;" parent="1" vertex="1">
          <mxGeometry x="170" y="360" width="100" height="40" as="geometry" />
        </mxCell>
        <mxCell id="qZzi_SCzW3qL0KnUVAnv-12" value="AccountName" style="whiteSpace=wrap;html=1;align=center;" parent="1" vertex="1">
          <mxGeometry x="270" y="360" width="100" height="40" as="geometry" />
        </mxCell>
        <mxCell id="qZzi_SCzW3qL0KnUVAnv-13" value="AccountRelation" style="whiteSpace=wrap;html=1;align=center;" parent="1" vertex="1">
          <mxGeometry x="370" y="360" width="100" height="40" as="geometry" />
        </mxCell>
        <mxCell id="qZzi_SCzW3qL0KnUVAnv-17" style="edgeStyle=orthogonalEdgeStyle;rounded=0;orthogonalLoop=1;jettySize=auto;html=1;exitX=0.5;exitY=0;exitDx=0;exitDy=0;entryX=0.5;entryY=0;entryDx=0;entryDy=0;" parent="1" source="qZzi_SCzW3qL0KnUVAnv-14" target="qZzi_SCzW3qL0KnUVAnv-9" edge="1">
          <mxGeometry relative="1" as="geometry">
            <Array as="points">
              <mxPoint x="120" y="260" />
              <mxPoint x="120" y="240" />
              <mxPoint x="380" y="240" />
              <mxPoint x="380" y="340" />
              <mxPoint x="120" y="340" />
            </Array>
          </mxGeometry>
        </mxCell>
        <mxCell id="qZzi_SCzW3qL0KnUVAnv-14" value="AccountID" style="whiteSpace=wrap;html=1;align=center;" parent="1" vertex="1">
          <mxGeometry x="72.5" y="260" width="100" height="40" as="geometry" />
        </mxCell>
        <mxCell id="qZzi_SCzW3qL0KnUVAnv-18" style="edgeStyle=orthogonalEdgeStyle;rounded=0;orthogonalLoop=1;jettySize=auto;html=1;exitX=0.5;exitY=0;exitDx=0;exitDy=0;entryX=0.5;entryY=1;entryDx=0;entryDy=0;" parent="1" source="qZzi_SCzW3qL0KnUVAnv-15" target="qZzi_SCzW3qL0KnUVAnv-6" edge="1">
          <mxGeometry relative="1" as="geometry">
            <Array as="points">
              <mxPoint x="223" y="220" />
              <mxPoint x="320" y="220" />
            </Array>
          </mxGeometry>
        </mxCell>
        <mxCell id="qZzi_SCzW3qL0KnUVAnv-15" value="SSN" style="whiteSpace=wrap;html=1;align=center;" parent="1" vertex="1">
          <mxGeometry x="172.5" y="260" width="100" height="40" as="geometry" />
        </mxCell>
        <mxCell id="qZzi_SCzW3qL0KnUVAnv-19" value="BillingAccountID" style="whiteSpace=wrap;html=1;align=center;" parent="1" vertex="1">
          <mxGeometry x="70" y="500" width="100" height="40" as="geometry" />
        </mxCell>
        <mxCell id="qZzi_SCzW3qL0KnUVAnv-20" value="BAcctName" style="whiteSpace=wrap;html=1;align=center;" parent="1" vertex="1">
          <mxGeometry x="170" y="500" width="100" height="40" as="geometry" />
        </mxCell>
        <mxCell id="qZzi_SCzW3qL0KnUVAnv-21" value="BillingZip" style="whiteSpace=wrap;html=1;align=center;" parent="1" vertex="1">
          <mxGeometry x="270" y="500" width="100" height="40" as="geometry" />
        </mxCell>
        <mxCell id="qZzi_SCzW3qL0KnUVAnv-22" value="AdminName" style="whiteSpace=wrap;html=1;align=center;" parent="1" vertex="1">
          <mxGeometry x="70" y="760" width="100" height="40" as="geometry" />
        </mxCell>
        <mxCell id="qZzi_SCzW3qL0KnUVAnv-23" value="AdminAddress" style="whiteSpace=wrap;html=1;align=center;" parent="1" vertex="1">
          <mxGeometry x="170" y="760" width="100" height="40" as="geometry" />
        </mxCell>
        <mxCell id="qZzi_SCzW3qL0KnUVAnv-24" value="AliasID" style="whiteSpace=wrap;html=1;align=center;" parent="1" vertex="1">
          <mxGeometry x="70" y="860" width="100" height="40" as="geometry" />
        </mxCell>
        <mxCell id="qZzi_SCzW3qL0KnUVAnv-25" value="AliasSource" style="whiteSpace=wrap;html=1;align=center;" parent="1" vertex="1">
          <mxGeometry x="170" y="860" width="100" height="40" as="geometry" />
        </mxCell>
        <mxCell id="qZzi_SCzW3qL0KnUVAnv-28" style="edgeStyle=orthogonalEdgeStyle;rounded=0;orthogonalLoop=1;jettySize=auto;html=1;exitX=0.5;exitY=1;exitDx=0;exitDy=0;entryX=0.5;entryY=1;entryDx=0;entryDy=0;" parent="1" source="qZzi_SCzW3qL0KnUVAnv-26" target="qZzi_SCzW3qL0KnUVAnv-9" edge="1">
          <mxGeometry relative="1" as="geometry">
            <Array as="points">
              <mxPoint x="120" y="1030" />
              <mxPoint x="20" y="1030" />
              <mxPoint x="20" y="440" />
              <mxPoint x="120" y="440" />
            </Array>
          </mxGeometry>
        </mxCell>
        <mxCell id="qZzi_SCzW3qL0KnUVAnv-26" value="AcctIDNumber" style="whiteSpace=wrap;html=1;align=center;" parent="1" vertex="1">
          <mxGeometry x="70" y="980" width="100" height="40" as="geometry" />
        </mxCell>
        <mxCell id="qZzi_SCzW3qL0KnUVAnv-29" style="edgeStyle=orthogonalEdgeStyle;rounded=0;orthogonalLoop=1;jettySize=auto;html=1;exitX=0.5;exitY=1;exitDx=0;exitDy=0;entryX=0.5;entryY=1;entryDx=0;entryDy=0;" parent="1" source="qZzi_SCzW3qL0KnUVAnv-27" target="qZzi_SCzW3qL0KnUVAnv-22" edge="1">
          <mxGeometry relative="1" as="geometry">
            <Array as="points">
              <mxPoint x="220" y="1050" />
              <mxPoint y="1050" />
              <mxPoint y="820" />
              <mxPoint x="120" y="820" />
            </Array>
          </mxGeometry>
        </mxCell>
        <mxCell id="qZzi_SCzW3qL0KnUVAnv-27" value="AdminName" style="whiteSpace=wrap;html=1;align=center;" parent="1" vertex="1">
          <mxGeometry x="170" y="980" width="100" height="40" as="geometry" />
        </mxCell>
        <mxCell id="qZzi_SCzW3qL0KnUVAnv-31" style="edgeStyle=orthogonalEdgeStyle;rounded=0;orthogonalLoop=1;jettySize=auto;html=1;exitX=0.5;exitY=1;exitDx=0;exitDy=0;entryX=0.25;entryY=1;entryDx=0;entryDy=0;" parent="1" source="qZzi_SCzW3qL0KnUVAnv-30" target="qZzi_SCzW3qL0KnUVAnv-9" edge="1">
          <mxGeometry relative="1" as="geometry">
            <mxPoint x="205" y="820" as="sourcePoint" />
            <mxPoint x="-20" y="400" as="targetPoint" />
            <Array as="points">
              <mxPoint x="320" y="920" />
              <mxPoint x="-20" y="920" />
              <mxPoint x="-20" y="420" />
              <mxPoint x="95" y="420" />
            </Array>
          </mxGeometry>
        </mxCell>
        <mxCell id="qZzi_SCzW3qL0KnUVAnv-30" value="AccountIDNumber" style="whiteSpace=wrap;html=1;align=center;" parent="1" vertex="1">
          <mxGeometry x="270" y="860" width="100" height="40" as="geometry" />
        </mxCell>
        <mxCell id="qZzi_SCzW3qL0KnUVAnv-32" value="AcctIDNumber" style="whiteSpace=wrap;html=1;align=center;" parent="1" vertex="1">
          <mxGeometry x="70" y="1110" width="100" height="40" as="geometry" />
        </mxCell>
        <mxCell id="qZzi_SCzW3qL0KnUVAnv-35" style="edgeStyle=orthogonalEdgeStyle;rounded=0;orthogonalLoop=1;jettySize=auto;html=1;exitX=0.5;exitY=1;exitDx=0;exitDy=0;entryX=0.5;entryY=1;entryDx=0;entryDy=0;" parent="1" source="qZzi_SCzW3qL0KnUVAnv-33" target="qZzi_SCzW3qL0KnUVAnv-19" edge="1">
          <mxGeometry relative="1" as="geometry">
            <Array as="points">
              <mxPoint x="220" y="1190" />
              <mxPoint x="-60" y="1190" />
              <mxPoint x="-60" y="560" />
              <mxPoint x="120" y="560" />
            </Array>
          </mxGeometry>
        </mxCell>
        <mxCell id="qZzi_SCzW3qL0KnUVAnv-33" value="BillingAccountID" style="whiteSpace=wrap;html=1;align=center;" parent="1" vertex="1">
          <mxGeometry x="170" y="1110" width="100" height="40" as="geometry" />
        </mxCell>
        <mxCell id="qZzi_SCzW3qL0KnUVAnv-34" style="edgeStyle=orthogonalEdgeStyle;rounded=0;orthogonalLoop=1;jettySize=auto;html=1;exitX=0.5;exitY=1;exitDx=0;exitDy=0;entryX=0.387;entryY=1.017;entryDx=0;entryDy=0;entryPerimeter=0;" parent="1" source="qZzi_SCzW3qL0KnUVAnv-32" target="qZzi_SCzW3qL0KnUVAnv-9" edge="1">
          <mxGeometry relative="1" as="geometry">
            <Array as="points">
              <mxPoint x="120" y="1170" />
              <mxPoint x="-40" y="1170" />
              <mxPoint x="-40" y="430" />
              <mxPoint x="109" y="430" />
            </Array>
          </mxGeometry>
        </mxCell>
        <mxCell id="qZzi_SCzW3qL0KnUVAnv-36" value="SitCode" style="whiteSpace=wrap;html=1;align=center;" parent="1" vertex="1">
          <mxGeometry x="70" y="1240" width="100" height="40" as="geometry" />
        </mxCell>
        <mxCell id="qZzi_SCzW3qL0KnUVAnv-37" value="IssueDate" style="whiteSpace=wrap;html=1;align=center;" parent="1" vertex="1">
          <mxGeometry x="170" y="1240" width="100" height="40" as="geometry" />
        </mxCell>
        <mxCell id="qZzi_SCzW3qL0KnUVAnv-38" value="RelationshipType" style="whiteSpace=wrap;html=1;align=center;" parent="1" vertex="1">
          <mxGeometry x="270" y="1110" width="100" height="40" as="geometry" />
        </mxCell>
        <mxCell id="qZzi_SCzW3qL0KnUVAnv-39" value="StartDate" style="whiteSpace=wrap;html=1;align=center;" parent="1" vertex="1">
          <mxGeometry x="370" y="1110" width="100" height="40" as="geometry" />
        </mxCell>
        <mxCell id="qZzi_SCzW3qL0KnUVAnv-40" value="AccountIDNumber" style="whiteSpace=wrap;html=1;align=center;" parent="1" vertex="1">
          <mxGeometry x="70" y="1419" width="100" height="40" as="geometry" />
        </mxCell>
        <mxCell id="qZzi_SCzW3qL0KnUVAnv-42" style="edgeStyle=orthogonalEdgeStyle;rounded=0;orthogonalLoop=1;jettySize=auto;html=1;exitX=0.5;exitY=0;exitDx=0;exitDy=0;entryX=0.5;entryY=1;entryDx=0;entryDy=0;" parent="1" source="qZzi_SCzW3qL0KnUVAnv-41" target="qZzi_SCzW3qL0KnUVAnv-36" edge="1">
          <mxGeometry relative="1" as="geometry">
            <Array as="points">
              <mxPoint x="220" y="1410" />
              <mxPoint x="450" y="1410" />
              <mxPoint x="450" y="1350" />
              <mxPoint x="120" y="1350" />
            </Array>
          </mxGeometry>
        </mxCell>
        <mxCell id="qZzi_SCzW3qL0KnUVAnv-41" value="SitCode" style="whiteSpace=wrap;html=1;align=center;" parent="1" vertex="1">
          <mxGeometry x="170" y="1419" width="100" height="40" as="geometry" />
        </mxCell>
        <mxCell id="qZzi_SCzW3qL0KnUVAnv-45" style="edgeStyle=orthogonalEdgeStyle;rounded=0;orthogonalLoop=1;jettySize=auto;html=1;exitX=0.5;exitY=0;exitDx=0;exitDy=0;entryX=0.107;entryY=0.967;entryDx=0;entryDy=0;entryPerimeter=0;" parent="1" source="qZzi_SCzW3qL0KnUVAnv-40" target="qZzi_SCzW3qL0KnUVAnv-9" edge="1">
          <mxGeometry relative="1" as="geometry">
            <Array as="points">
              <mxPoint x="120" y="1410" />
              <mxPoint x="-80" y="1410" />
              <mxPoint x="-80" y="410" />
              <mxPoint x="81" y="410" />
            </Array>
          </mxGeometry>
        </mxCell>
        <mxCell id="qZzi_SCzW3qL0KnUVAnv-46" value="AssociateType" style="whiteSpace=wrap;html=1;align=center;" parent="1" vertex="1">
          <mxGeometry x="270" y="1419" width="100" height="40" as="geometry" />
        </mxCell>
        <mxCell id="qZzi_SCzW3qL0KnUVAnv-47" value="AssocName" style="whiteSpace=wrap;html=1;align=center;" parent="1" vertex="1">
          <mxGeometry x="70" y="1530" width="100" height="40" as="geometry" />
        </mxCell>
        <mxCell id="qZzi_SCzW3qL0KnUVAnv-48" value="AssocDOB" style="whiteSpace=wrap;html=1;align=center;" parent="1" vertex="1">
          <mxGeometry x="170" y="1530" width="100" height="40" as="geometry" />
        </mxCell>
        <mxCell id="qZzi_SCzW3qL0KnUVAnv-49" value="Assoc_office" style="whiteSpace=wrap;html=1;align=center;" parent="1" vertex="1">
          <mxGeometry x="270" y="1530" width="100" height="40" as="geometry" />
        </mxCell>
        <mxCell id="qZzi_SCzW3qL0KnUVAnv-51" style="edgeStyle=orthogonalEdgeStyle;rounded=0;orthogonalLoop=1;jettySize=auto;html=1;exitX=0.5;exitY=0;exitDx=0;exitDy=0;entryX=0.5;entryY=0;entryDx=0;entryDy=0;" parent="1" source="qZzi_SCzW3qL0KnUVAnv-50" target="qZzi_SCzW3qL0KnUVAnv-47" edge="1">
          <mxGeometry relative="1" as="geometry">
            <Array as="points">
              <mxPoint x="420" y="1520" />
              <mxPoint x="120" y="1520" />
            </Array>
          </mxGeometry>
        </mxCell>
        <mxCell id="qZzi_SCzW3qL0KnUVAnv-50" value="RAssocName" style="whiteSpace=wrap;html=1;align=center;" parent="1" vertex="1">
          <mxGeometry x="370" y="1530" width="100" height="40" as="geometry" />
        </mxCell>
        <mxCell id="qZzi_SCzW3qL0KnUVAnv-53" style="edgeStyle=orthogonalEdgeStyle;rounded=0;orthogonalLoop=1;jettySize=auto;html=1;exitX=0.5;exitY=0;exitDx=0;exitDy=0;entryX=0.5;entryY=1;entryDx=0;entryDy=0;" parent="1" source="qZzi_SCzW3qL0KnUVAnv-52" target="qZzi_SCzW3qL0KnUVAnv-47" edge="1">
          <mxGeometry relative="1" as="geometry">
            <Array as="points">
              <mxPoint x="120" y="1630" />
              <mxPoint x="20" y="1630" />
              <mxPoint x="20" y="1580" />
              <mxPoint x="120" y="1580" />
            </Array>
          </mxGeometry>
        </mxCell>
        <mxCell id="qZzi_SCzW3qL0KnUVAnv-52" value="AssocName" style="whiteSpace=wrap;html=1;align=center;" parent="1" vertex="1">
          <mxGeometry x="70" y="1640" width="100" height="40" as="geometry" />
        </mxCell>
        <mxCell id="qZzi_SCzW3qL0KnUVAnv-56" style="edgeStyle=orthogonalEdgeStyle;rounded=0;orthogonalLoop=1;jettySize=auto;html=1;exitX=0.5;exitY=1;exitDx=0;exitDy=0;entryX=0.25;entryY=1;entryDx=0;entryDy=0;" parent="1" source="qZzi_SCzW3qL0KnUVAnv-54" target="qZzi_SCzW3qL0KnUVAnv-36" edge="1">
          <mxGeometry relative="1" as="geometry">
            <Array as="points">
              <mxPoint x="220" y="1710" />
              <mxPoint x="50" y="1710" />
              <mxPoint x="50" y="1329" />
              <mxPoint x="95" y="1329" />
            </Array>
          </mxGeometry>
        </mxCell>
        <mxCell id="qZzi_SCzW3qL0KnUVAnv-54" value="SitCode" style="whiteSpace=wrap;html=1;align=center;" parent="1" vertex="1">
          <mxGeometry x="170" y="1640" width="100" height="40" as="geometry" />
        </mxCell>
        <mxCell id="qZzi_SCzW3qL0KnUVAnv-55" value="Writing_Number" style="whiteSpace=wrap;html=1;align=center;" parent="1" vertex="1">
          <mxGeometry x="270" y="1640" width="100" height="40" as="geometry" />
        </mxCell>
        <mxCell id="qZzi_SCzW3qL0KnUVAnv-60" style="edgeStyle=orthogonalEdgeStyle;rounded=0;orthogonalLoop=1;jettySize=auto;html=1;exitX=0.5;exitY=1;exitDx=0;exitDy=0;entryX=0.5;entryY=0;entryDx=0;entryDy=0;" parent="1" source="qZzi_SCzW3qL0KnUVAnv-57" target="qZzi_SCzW3qL0KnUVAnv-22" edge="1">
          <mxGeometry relative="1" as="geometry">
            <Array as="points">
              <mxPoint x="120" y="700" />
              <mxPoint x="40" y="700" />
              <mxPoint x="40" y="750" />
              <mxPoint x="120" y="750" />
            </Array>
          </mxGeometry>
        </mxCell>
        <mxCell id="qZzi_SCzW3qL0KnUVAnv-57" value="AdminName" style="whiteSpace=wrap;html=1;align=center;" parent="1" vertex="1">
          <mxGeometry x="70" y="640" width="100" height="40" as="geometry" />
        </mxCell>
        <mxCell id="qZzi_SCzW3qL0KnUVAnv-59" style="edgeStyle=orthogonalEdgeStyle;rounded=0;orthogonalLoop=1;jettySize=auto;html=1;exitX=1;exitY=0.5;exitDx=0;exitDy=0;entryX=0.25;entryY=1;entryDx=0;entryDy=0;" parent="1" source="qZzi_SCzW3qL0KnUVAnv-58" target="qZzi_SCzW3qL0KnUVAnv-19" edge="1">
          <mxGeometry relative="1" as="geometry">
            <Array as="points">
              <mxPoint x="310" y="660" />
              <mxPoint x="310" y="590" />
              <mxPoint x="95" y="590" />
            </Array>
          </mxGeometry>
        </mxCell>
        <mxCell id="qZzi_SCzW3qL0KnUVAnv-58" value="BillingAccountID" style="whiteSpace=wrap;html=1;align=center;" parent="1" vertex="1">
          <mxGeometry x="170" y="640" width="100" height="40" as="geometry" />
        </mxCell>
        <mxCell id="qZzi_SCzW3qL0KnUVAnv-61" value="ContractNumber" style="whiteSpace=wrap;html=1;align=center;" parent="1" vertex="1">
          <mxGeometry x="70" y="1759" width="100" height="40" as="geometry" />
        </mxCell>
        <mxCell id="qZzi_SCzW3qL0KnUVAnv-62" value="Seller" style="whiteSpace=wrap;html=1;align=center;" parent="1" vertex="1">
          <mxGeometry x="170" y="1759" width="100" height="40" as="geometry" />
        </mxCell>
        <mxCell id="qZzi_SCzW3qL0KnUVAnv-63" value="SeriesName" style="whiteSpace=wrap;html=1;align=center;" parent="1" vertex="1">
          <mxGeometry x="270" y="1759" width="100" height="40" as="geometry" />
        </mxCell>
        <mxCell id="qZzi_SCzW3qL0KnUVAnv-64" value="PlanName" style="whiteSpace=wrap;html=1;align=center;" parent="1" vertex="1">
          <mxGeometry x="370" y="1759" width="100" height="40" as="geometry" />
        </mxCell>
        <mxCell id="qZzi_SCzW3qL0KnUVAnv-67" style="edgeStyle=orthogonalEdgeStyle;rounded=0;orthogonalLoop=1;jettySize=auto;html=1;exitX=0.5;exitY=1;exitDx=0;exitDy=0;entryX=0.5;entryY=1;entryDx=0;entryDy=0;" parent="1" source="qZzi_SCzW3qL0KnUVAnv-65" target="qZzi_SCzW3qL0KnUVAnv-61" edge="1">
          <mxGeometry relative="1" as="geometry">
            <Array as="points">
              <mxPoint x="120" y="1980" />
              <mxPoint x="50" y="1980" />
              <mxPoint x="50" y="1820" />
              <mxPoint x="120" y="1820" />
            </Array>
          </mxGeometry>
        </mxCell>
        <mxCell id="qZzi_SCzW3qL0KnUVAnv-65" value="ContractNumber" style="whiteSpace=wrap;html=1;align=center;" parent="1" vertex="1">
          <mxGeometry x="70" y="1890" width="100" height="40" as="geometry" />
        </mxCell>
        <mxCell id="qZzi_SCzW3qL0KnUVAnv-68" style="edgeStyle=orthogonalEdgeStyle;rounded=0;orthogonalLoop=1;jettySize=auto;html=1;exitX=0.5;exitY=1;exitDx=0;exitDy=0;entryX=0.25;entryY=1;entryDx=0;entryDy=0;" parent="1" source="qZzi_SCzW3qL0KnUVAnv-66" target="qZzi_SCzW3qL0KnUVAnv-24" edge="1">
          <mxGeometry relative="1" as="geometry">
            <Array as="points">
              <mxPoint x="220" y="1990" />
              <mxPoint x="-10" y="1990" />
              <mxPoint x="-10" y="910" />
              <mxPoint x="95" y="910" />
            </Array>
          </mxGeometry>
        </mxCell>
        <mxCell id="qZzi_SCzW3qL0KnUVAnv-66" value="AliasID" style="whiteSpace=wrap;html=1;align=center;" parent="1" vertex="1">
          <mxGeometry x="170" y="1890" width="100" height="40" as="geometry" />
        </mxCell>
        <mxCell id="qZzi_SCzW3qL0KnUVAnv-69" value="Benefit_code" style="whiteSpace=wrap;html=1;align=center;" parent="1" vertex="1">
          <mxGeometry x="70" y="2060" width="100" height="40" as="geometry" />
        </mxCell>
        <mxCell id="qZzi_SCzW3qL0KnUVAnv-70" value="Benefit_policy" style="whiteSpace=wrap;html=1;align=center;" parent="1" vertex="1">
          <mxGeometry x="170" y="2060" width="100" height="40" as="geometry" />
        </mxCell>
        <mxCell id="qZzi_SCzW3qL0KnUVAnv-72" style="edgeStyle=orthogonalEdgeStyle;rounded=0;orthogonalLoop=1;jettySize=auto;html=1;exitX=0.5;exitY=0;exitDx=0;exitDy=0;entryX=0.75;entryY=1;entryDx=0;entryDy=0;" parent="1" source="qZzi_SCzW3qL0KnUVAnv-71" target="qZzi_SCzW3qL0KnUVAnv-61" edge="1">
          <mxGeometry relative="1" as="geometry">
            <Array as="points">
              <mxPoint x="320" y="1820" />
              <mxPoint x="145" y="1820" />
            </Array>
          </mxGeometry>
        </mxCell>
        <mxCell id="qZzi_SCzW3qL0KnUVAnv-71" value="ContractNumber" style="whiteSpace=wrap;html=1;align=center;" parent="1" vertex="1">
          <mxGeometry x="270" y="2060" width="100" height="40" as="geometry" />
        </mxCell>
        <mxCell id="qZzi_SCzW3qL0KnUVAnv-73" value="PremiumCode" style="whiteSpace=wrap;html=1;align=center;" parent="1" vertex="1">
          <mxGeometry x="70" y="2220" width="100" height="40" as="geometry" />
        </mxCell>
        <mxCell id="qZzi_SCzW3qL0KnUVAnv-74" value="Benefit_policy" style="whiteSpace=wrap;html=1;align=center;" parent="1" vertex="1">
          <mxGeometry x="170" y="2220" width="100" height="40" as="geometry" />
        </mxCell>
        <mxCell id="qZzi_SCzW3qL0KnUVAnv-76" style="edgeStyle=orthogonalEdgeStyle;rounded=0;orthogonalLoop=1;jettySize=auto;html=1;exitX=0.5;exitY=0;exitDx=0;exitDy=0;entryX=0.5;entryY=1;entryDx=0;entryDy=0;" parent="1" source="qZzi_SCzW3qL0KnUVAnv-75" target="qZzi_SCzW3qL0KnUVAnv-69" edge="1">
          <mxGeometry relative="1" as="geometry">
            <Array as="points">
              <mxPoint x="320" y="2120" />
              <mxPoint x="120" y="2120" />
            </Array>
          </mxGeometry>
        </mxCell>
        <mxCell id="qZzi_SCzW3qL0KnUVAnv-75" value="Benefit_code" style="whiteSpace=wrap;html=1;align=center;" parent="1" vertex="1">
          <mxGeometry x="270" y="2220" width="100" height="40" as="geometry" />
        </mxCell>
        <mxCell id="qZzi_SCzW3qL0KnUVAnv-80" style="edgeStyle=orthogonalEdgeStyle;rounded=0;orthogonalLoop=1;jettySize=auto;html=1;exitX=0.5;exitY=1;exitDx=0;exitDy=0;" parent="1" source="qZzi_SCzW3qL0KnUVAnv-77" target="qZzi_SCzW3qL0KnUVAnv-61" edge="1">
          <mxGeometry relative="1" as="geometry">
            <mxPoint x="145" y="1930" as="targetPoint" />
            <Array as="points">
              <mxPoint x="120" y="2398" />
              <mxPoint x="10" y="2398" />
              <mxPoint x="10" y="1830" />
              <mxPoint x="103" y="1830" />
            </Array>
          </mxGeometry>
        </mxCell>
        <mxCell id="qZzi_SCzW3qL0KnUVAnv-77" value="ContractNumber" style="whiteSpace=wrap;html=1;align=center;" parent="1" vertex="1">
          <mxGeometry x="70" y="2348" width="100" height="40" as="geometry" />
        </mxCell>
        <mxCell id="qZzi_SCzW3qL0KnUVAnv-81" style="edgeStyle=orthogonalEdgeStyle;rounded=0;orthogonalLoop=1;jettySize=auto;html=1;exitX=0.5;exitY=1;exitDx=0;exitDy=0;entryX=0.25;entryY=1;entryDx=0;entryDy=0;" parent="1" source="qZzi_SCzW3qL0KnUVAnv-78" target="qZzi_SCzW3qL0KnUVAnv-6" edge="1">
          <mxGeometry relative="1" as="geometry">
            <Array as="points">
              <mxPoint x="220" y="2420" />
              <mxPoint x="-100" y="2420" />
              <mxPoint x="-100" y="150" />
              <mxPoint x="295" y="150" />
            </Array>
          </mxGeometry>
        </mxCell>
        <mxCell id="qZzi_SCzW3qL0KnUVAnv-78" value="SSN" style="whiteSpace=wrap;html=1;align=center;" parent="1" vertex="1">
          <mxGeometry x="170" y="2348" width="100" height="40" as="geometry" />
        </mxCell>
        <mxCell id="qZzi_SCzW3qL0KnUVAnv-79" value="lifePolicy" style="whiteSpace=wrap;html=1;align=center;" parent="1" vertex="1">
          <mxGeometry x="270" y="2348" width="100" height="40" as="geometry" />
        </mxCell>
        <mxCell id="qZzi_SCzW3qL0KnUVAnv-84" style="edgeStyle=orthogonalEdgeStyle;rounded=0;orthogonalLoop=1;jettySize=auto;html=1;exitX=0.5;exitY=1;exitDx=0;exitDy=0;entryX=0.25;entryY=1;entryDx=0;entryDy=0;" parent="1" source="qZzi_SCzW3qL0KnUVAnv-82" target="qZzi_SCzW3qL0KnUVAnv-69" edge="1">
          <mxGeometry relative="1" as="geometry">
            <Array as="points">
              <mxPoint x="120" y="2550" />
              <mxPoint x="-40" y="2550" />
              <mxPoint x="-40" y="2120" />
              <mxPoint x="95" y="2120" />
            </Array>
          </mxGeometry>
        </mxCell>
        <mxCell id="qZzi_SCzW3qL0KnUVAnv-82" value="Benefit_code" style="whiteSpace=wrap;html=1;align=center;" parent="1" vertex="1">
          <mxGeometry x="70" y="2490" width="100" height="40" as="geometry" />
        </mxCell>
        <mxCell id="qZzi_SCzW3qL0KnUVAnv-83" value="SSN" style="whiteSpace=wrap;html=1;align=center;" parent="1" vertex="1">
          <mxGeometry x="170" y="2490" width="100" height="40" as="geometry" />
        </mxCell>
        <mxCell id="qZzi_SCzW3qL0KnUVAnv-85" style="edgeStyle=orthogonalEdgeStyle;rounded=0;orthogonalLoop=1;jettySize=auto;html=1;exitX=0.5;exitY=1;exitDx=0;exitDy=0;entryX=0.347;entryY=0.983;entryDx=0;entryDy=0;entryPerimeter=0;" parent="1" source="qZzi_SCzW3qL0KnUVAnv-83" target="qZzi_SCzW3qL0KnUVAnv-6" edge="1">
          <mxGeometry relative="1" as="geometry">
            <Array as="points">
              <mxPoint x="220" y="2570" />
              <mxPoint x="-130" y="2570" />
              <mxPoint x="-130" y="160" />
              <mxPoint x="305" y="160" />
            </Array>
          </mxGeometry>
        </mxCell>
        <mxCell id="qZzi_SCzW3qL0KnUVAnv-89" style="edgeStyle=orthogonalEdgeStyle;rounded=0;orthogonalLoop=1;jettySize=auto;html=1;exitX=0.5;exitY=1;exitDx=0;exitDy=0;" parent="1" source="qZzi_SCzW3qL0KnUVAnv-86" target="qZzi_SCzW3qL0KnUVAnv-73" edge="1">
          <mxGeometry relative="1" as="geometry">
            <Array as="points">
              <mxPoint x="120" y="2690" />
              <mxPoint x="-160" y="2690" />
              <mxPoint x="-160" y="2290" />
              <mxPoint x="120" y="2290" />
            </Array>
          </mxGeometry>
        </mxCell>
        <mxCell id="qZzi_SCzW3qL0KnUVAnv-86" value="PremiumCode" style="whiteSpace=wrap;html=1;align=center;" parent="1" vertex="1">
          <mxGeometry x="70" y="2630" width="100" height="40" as="geometry" />
        </mxCell>
        <mxCell id="qZzi_SCzW3qL0KnUVAnv-87" value="Sitcode" style="whiteSpace=wrap;html=1;align=center;" parent="1" vertex="1">
          <mxGeometry x="170" y="2630" width="100" height="40" as="geometry" />
        </mxCell>
        <mxCell id="qZzi_SCzW3qL0KnUVAnv-90" style="edgeStyle=orthogonalEdgeStyle;rounded=0;orthogonalLoop=1;jettySize=auto;html=1;exitX=0.5;exitY=1;exitDx=0;exitDy=0;entryX=0.38;entryY=0.992;entryDx=0;entryDy=0;entryPerimeter=0;" parent="1" source="qZzi_SCzW3qL0KnUVAnv-87" target="qZzi_SCzW3qL0KnUVAnv-36" edge="1">
          <mxGeometry relative="1" as="geometry">
            <Array as="points">
              <mxPoint x="220" y="2710" />
              <mxPoint x="-190" y="2710" />
              <mxPoint x="-190" y="1350" />
              <mxPoint x="108" y="1350" />
            </Array>
          </mxGeometry>
        </mxCell>
        <mxCell id="qZzi_SCzW3qL0KnUVAnv-91" value="&lt;font style=&quot;font-size: 24px;&quot;&gt;Customer&lt;/font&gt;" style="text;html=1;strokeColor=none;fillColor=none;align=center;verticalAlign=middle;whiteSpace=wrap;rounded=0;" parent="1" vertex="1">
          <mxGeometry x="70" y="40" width="90" height="50" as="geometry" />
        </mxCell>
        <mxCell id="qZzi_SCzW3qL0KnUVAnv-92" value="&lt;span style=&quot;font-size: 24px;&quot;&gt;hasAccount&lt;/span&gt;" style="text;html=1;strokeColor=none;fillColor=none;align=center;verticalAlign=middle;whiteSpace=wrap;rounded=0;" parent="1" vertex="1">
          <mxGeometry x="40" y="180" width="185" height="50" as="geometry" />
        </mxCell>
        <mxCell id="qZzi_SCzW3qL0KnUVAnv-94" value="&lt;span style=&quot;font-size: 24px;&quot;&gt;Account&lt;/span&gt;" style="text;html=1;strokeColor=none;fillColor=none;align=center;verticalAlign=middle;whiteSpace=wrap;rounded=0;" parent="1" vertex="1">
          <mxGeometry x="27.5" y="300" width="185" height="50" as="geometry" />
        </mxCell>
        <mxCell id="qZzi_SCzW3qL0KnUVAnv-95" value="&lt;span style=&quot;font-size: 24px;&quot;&gt;BillingAccount&lt;/span&gt;" style="text;html=1;strokeColor=none;fillColor=none;align=center;verticalAlign=middle;whiteSpace=wrap;rounded=0;" parent="1" vertex="1">
          <mxGeometry x="60" y="450" width="185" height="50" as="geometry" />
        </mxCell>
        <mxCell id="qZzi_SCzW3qL0KnUVAnv-96" value="&lt;span style=&quot;font-size: 24px;&quot;&gt;AccountAdmin&lt;/span&gt;" style="text;html=1;strokeColor=none;fillColor=none;align=center;verticalAlign=middle;whiteSpace=wrap;rounded=0;" parent="1" vertex="1">
          <mxGeometry x="50" y="700" width="185" height="50" as="geometry" />
        </mxCell>
        <mxCell id="qZzi_SCzW3qL0KnUVAnv-97" value="&lt;span style=&quot;font-size: 24px;&quot;&gt;BillingAccount_Admin&lt;/span&gt;" style="text;html=1;strokeColor=none;fillColor=none;align=center;verticalAlign=middle;whiteSpace=wrap;rounded=0;" parent="1" vertex="1">
          <mxGeometry x="90" y="585" width="185" height="50" as="geometry" />
        </mxCell>
        <mxCell id="qZzi_SCzW3qL0KnUVAnv-101" value="&lt;span style=&quot;font-size: 24px;&quot;&gt;AccountAlias&lt;/span&gt;" style="text;html=1;strokeColor=none;fillColor=none;align=center;verticalAlign=middle;whiteSpace=wrap;rounded=0;" parent="1" vertex="1">
          <mxGeometry x="60" y="810" width="185" height="50" as="geometry" />
        </mxCell>
        <mxCell id="qZzi_SCzW3qL0KnUVAnv-102" value="&lt;span style=&quot;font-size: 24px;&quot;&gt;Acc_Admin&lt;/span&gt;" style="text;html=1;strokeColor=none;fillColor=none;align=center;verticalAlign=middle;whiteSpace=wrap;rounded=0;" parent="1" vertex="1">
          <mxGeometry x="50" y="920" width="185" height="50" as="geometry" />
        </mxCell>
        <mxCell id="qZzi_SCzW3qL0KnUVAnv-103" value="&lt;span style=&quot;font-size: 24px;&quot;&gt;AcctBillingAccount&lt;/span&gt;" style="text;html=1;strokeColor=none;fillColor=none;align=center;verticalAlign=middle;whiteSpace=wrap;rounded=0;" parent="1" vertex="1">
          <mxGeometry x="70" y="1060" width="185" height="50" as="geometry" />
        </mxCell>
        <mxCell id="qZzi_SCzW3qL0KnUVAnv-104" value="&lt;span style=&quot;font-size: 24px;&quot;&gt;ManagerContract&lt;/span&gt;" style="text;html=1;strokeColor=none;fillColor=none;align=center;verticalAlign=middle;whiteSpace=wrap;rounded=0;" parent="1" vertex="1">
          <mxGeometry x="70" y="1190" width="185" height="50" as="geometry" />
        </mxCell>
        <mxCell id="qZzi_SCzW3qL0KnUVAnv-105" value="&lt;span style=&quot;font-size: 24px;&quot;&gt;Account_MangerCont&lt;/span&gt;" style="text;html=1;strokeColor=none;fillColor=none;align=center;verticalAlign=middle;whiteSpace=wrap;rounded=0;" parent="1" vertex="1">
          <mxGeometry x="90" y="1360" width="185" height="50" as="geometry" />
        </mxCell>
        <mxCell id="qZzi_SCzW3qL0KnUVAnv-106" value="&lt;span style=&quot;font-size: 24px;&quot;&gt;Associate&lt;/span&gt;" style="text;html=1;strokeColor=none;fillColor=none;align=center;verticalAlign=middle;whiteSpace=wrap;rounded=0;" parent="1" vertex="1">
          <mxGeometry x="27.5" y="1470" width="185" height="50" as="geometry" />
        </mxCell>
        <mxCell id="qZzi_SCzW3qL0KnUVAnv-109" value="&lt;span style=&quot;font-size: 24px;&quot;&gt;Asso_ManagerCon&lt;/span&gt;" style="text;html=1;strokeColor=none;fillColor=none;align=center;verticalAlign=middle;whiteSpace=wrap;rounded=0;" parent="1" vertex="1">
          <mxGeometry x="80" y="1580" width="185" height="50" as="geometry" />
        </mxCell>
        <mxCell id="qZzi_SCzW3qL0KnUVAnv-110" value="&lt;span style=&quot;font-size: 24px;&quot;&gt;Contract&lt;/span&gt;" style="text;html=1;strokeColor=none;fillColor=none;align=center;verticalAlign=middle;whiteSpace=wrap;rounded=0;" parent="1" vertex="1">
          <mxGeometry x="22.5" y="1709" width="185" height="50" as="geometry" />
        </mxCell>
        <mxCell id="qZzi_SCzW3qL0KnUVAnv-111" value="&lt;span style=&quot;font-size: 24px;&quot;&gt;LegacyPolicy_Account&lt;/span&gt;" style="text;html=1;strokeColor=none;fillColor=none;align=center;verticalAlign=middle;whiteSpace=wrap;rounded=0;" parent="1" vertex="1">
          <mxGeometry x="100" y="1830" width="185" height="50" as="geometry" />
        </mxCell>
        <mxCell id="qZzi_SCzW3qL0KnUVAnv-112" value="&lt;span style=&quot;font-size: 24px;&quot;&gt;ContractBenefit&lt;/span&gt;" style="text;html=1;strokeColor=none;fillColor=none;align=center;verticalAlign=middle;whiteSpace=wrap;rounded=0;" parent="1" vertex="1">
          <mxGeometry x="70" y="2010" width="185" height="50" as="geometry" />
        </mxCell>
        <mxCell id="qZzi_SCzW3qL0KnUVAnv-113" value="&lt;span style=&quot;font-size: 24px;&quot;&gt;ContractPremium&lt;/span&gt;" style="text;html=1;strokeColor=none;fillColor=none;align=center;verticalAlign=middle;whiteSpace=wrap;rounded=0;" parent="1" vertex="1">
          <mxGeometry x="70" y="2160" width="185" height="50" as="geometry" />
        </mxCell>
        <mxCell id="qZzi_SCzW3qL0KnUVAnv-114" value="&lt;span style=&quot;font-size: 24px;&quot;&gt;ContractingPartyRole&lt;/span&gt;" style="text;html=1;strokeColor=none;fillColor=none;align=center;verticalAlign=middle;whiteSpace=wrap;rounded=0;" parent="1" vertex="1">
          <mxGeometry x="90" y="2298" width="185" height="50" as="geometry" />
        </mxCell>
        <mxCell id="qZzi_SCzW3qL0KnUVAnv-115" value="&lt;span style=&quot;font-size: 24px;&quot;&gt;Premium_MgmtContract&lt;/span&gt;" style="text;html=1;strokeColor=none;fillColor=none;align=center;verticalAlign=middle;whiteSpace=wrap;rounded=0;" parent="1" vertex="1">
          <mxGeometry x="110" y="2580" width="185" height="50" as="geometry" />
        </mxCell>
        <mxCell id="qZzi_SCzW3qL0KnUVAnv-116" value="&lt;span style=&quot;font-size: 24px;&quot;&gt;Cus_ContBenefit&lt;/span&gt;" style="text;html=1;strokeColor=none;fillColor=none;align=center;verticalAlign=middle;whiteSpace=wrap;rounded=0;" parent="1" vertex="1">
          <mxGeometry x="70" y="2440" width="185" height="50" as="geometry" />
        </mxCell>
        <mxCell id="hkPzQXKPyZSz1aLBC89_-2" value="CustlastName" style="whiteSpace=wrap;html=1;align=center;" vertex="1" parent="1">
          <mxGeometry x="570" y="90" width="100" height="40" as="geometry" />
        </mxCell>
        <mxCell id="hkPzQXKPyZSz1aLBC89_-3" value="CustFirstName" style="whiteSpace=wrap;html=1;align=center;" vertex="1" parent="1">
          <mxGeometry x="670" y="90" width="100" height="40" as="geometry" />
        </mxCell>
        <mxCell id="hkPzQXKPyZSz1aLBC89_-4" value="CustMiddleInitial" style="whiteSpace=wrap;html=1;align=center;" vertex="1" parent="1">
          <mxGeometry x="770" y="90" width="100" height="40" as="geometry" />
        </mxCell>
        <mxCell id="hkPzQXKPyZSz1aLBC89_-5" value="Location State" style="whiteSpace=wrap;html=1;align=center;" vertex="1" parent="1">
          <mxGeometry x="470" y="360" width="100" height="40" as="geometry" />
        </mxCell>
        <mxCell id="hkPzQXKPyZSz1aLBC89_-6" value="LocationZip" style="whiteSpace=wrap;html=1;align=center;" vertex="1" parent="1">
          <mxGeometry x="570" y="360" width="100" height="40" as="geometry" />
        </mxCell>
        <mxCell id="hkPzQXKPyZSz1aLBC89_-7" value="AdminLastName" style="whiteSpace=wrap;html=1;align=center;" vertex="1" parent="1">
          <mxGeometry x="270" y="760" width="100" height="40" as="geometry" />
        </mxCell>
        <mxCell id="hkPzQXKPyZSz1aLBC89_-8" value="AdminFirstName" style="whiteSpace=wrap;html=1;align=center;" vertex="1" parent="1">
          <mxGeometry x="370" y="760" width="100" height="40" as="geometry" />
        </mxCell>
        <mxCell id="hkPzQXKPyZSz1aLBC89_-9" value="AdminMiddleInitial" style="whiteSpace=wrap;html=1;align=center;" vertex="1" parent="1">
          <mxGeometry x="470" y="760" width="100" height="40" as="geometry" />
        </mxCell>
        <mxCell id="hkPzQXKPyZSz1aLBC89_-10" value="BillingCity" style="whiteSpace=wrap;html=1;align=center;" vertex="1" parent="1">
          <mxGeometry x="370" y="500" width="100" height="40" as="geometry" />
        </mxCell>
        <mxCell id="hkPzQXKPyZSz1aLBC89_-11" value="BillingState" style="whiteSpace=wrap;html=1;align=center;" vertex="1" parent="1">
          <mxGeometry x="470" y="500" width="100" height="40" as="geometry" />
        </mxCell>
        <mxCell id="hkPzQXKPyZSz1aLBC89_-12" value="AssocFirstName" style="whiteSpace=wrap;html=1;align=center;" vertex="1" parent="1">
          <mxGeometry x="470" y="1530" width="100" height="40" as="geometry" />
        </mxCell>
        <mxCell id="hkPzQXKPyZSz1aLBC89_-14" value="AssocLastName" style="whiteSpace=wrap;html=1;align=center;" vertex="1" parent="1">
          <mxGeometry x="570" y="1530" width="100" height="40" as="geometry" />
        </mxCell>
        <mxCell id="hkPzQXKPyZSz1aLBC89_-15" value="AssocMiddleInitial" style="whiteSpace=wrap;html=1;align=center;" vertex="1" parent="1">
          <mxGeometry x="670" y="1530" width="100" height="40" as="geometry" />
        </mxCell>
      </root>
    </mxGraphModel>
  </diagram>
</mxfile>
